<?xml version="1.0" encoding="iso-8859-1"?>
<!-- Generator: Adobe Illustrator 19.0.0, SVG Export Plug-In . SVG Version: 6.00 Build 0)  -->
<svg version="1.1" id="Capa_1" xmlns="http://www.w3.org/2000/svg" xmlns:xlink="http://www.w3.org/1999/xlink" x="0px" y="0px"
	 viewBox="0 0 512 512" style="enable-background:new 0 0 512 512;" xml:space="preserve">
<linearGradient id="SVGID_1_" gradientUnits="userSpaceOnUse" x1="437.0193" y1="76.9807" x2="74.9807" y2="439.0193" gradientTransform="matrix(1 0 0 -1 0 514)">
	<stop  offset="0" style="stop-color:#009983"/>
	<stop  offset="1" style="stop-color:#19FFEC"/>
</linearGradient>
<circle style="fill:url(#SVGID_1_);" cx="256" cy="256" r="256"/>
<linearGradient id="SVGID_2_" gradientUnits="userSpaceOnUse" x1="220.81" y1="167.9505" x2="291.18" y2="167.9505" gradientTransform="matrix(1 0 0 -1 0 514)">
	<stop  offset="0" style="stop-color:#FFDBA9"/>
	<stop  offset="1" style="stop-color:#FFA91F"/>
</linearGradient>
<rect x="220.81" y="313.11" style="fill:url(#SVGID_2_);" width="70.37" height="65.879"/>
<linearGradient id="SVGID_3_" gradientUnits="userSpaceOnUse" x1="106.667" y1="80" x2="405.333" y2="80" gradientTransform="matrix(1 0 0 -1 0 514)">
	<stop  offset="0" style="stop-color:#00A6FF"/>
	<stop  offset="1" style="stop-color:#00459F"/>
</linearGradient>
<path style="fill:url(#SVGID_3_);" d="M362,356H150c-23.833,0-43.333,19.5-43.333,43.333v64.606C148.7,494.179,200.266,512,256,512
	s107.3-17.821,149.333-48.061v-64.606C405.333,375.5,385.833,356,362,356z"/>
<linearGradient id="SVGID_4_" gradientUnits="userSpaceOnUse" x1="191.67" y1="44.25" x2="348.35" y2="44.25" gradientTransform="matrix(1 0 0 -1 0 514)">
	<stop  offset="0" style="stop-color:#006EF5"/>
	<stop  offset="1" style="stop-color:#002D6B"/>
</linearGradient>
<path style="fill:url(#SVGID_4_);" d="M241.729,427.5v84.099C246.454,511.859,251.21,512,256,512c4.79,0,9.546-0.141,14.271-0.401
	V427.5H241.729z"/>
<linearGradient id="SVGID_5_" gradientUnits="userSpaceOnUse" x1="220.815" y1="122.25" x2="291.185" y2="122.25" gradientTransform="matrix(1 0 0 -1 0 514)">
	<stop  offset="0" style="stop-color:#FFFFFF"/>
	<stop  offset="1" style="stop-color:#FFED97"/>
</linearGradient>
<polygon style="fill:url(#SVGID_5_);" points="220.815,356 256,427.5 291.185,356 "/>
<g>
	
		<linearGradient id="SVGID_6_" gradientUnits="userSpaceOnUse" x1="191.67" y1="112.75" x2="348.35" y2="112.75" gradientTransform="matrix(1 0 0 -1 0 514)">
		<stop  offset="0" style="stop-color:#006EF5"/>
		<stop  offset="1" style="stop-color:#002D6B"/>
	</linearGradient>
	<polygon style="fill:url(#SVGID_6_);" points="220.815,356 180.667,356 213.333,446.5 256,427.5 	"/>
	
		<linearGradient id="SVGID_7_" gradientUnits="userSpaceOnUse" x1="191.67" y1="112.75" x2="348.35" y2="112.75" gradientTransform="matrix(1 0 0 -1 0 514)">
		<stop  offset="0" style="stop-color:#006EF5"/>
		<stop  offset="1" style="stop-color:#002D6B"/>
	</linearGradient>
	<polygon style="fill:url(#SVGID_7_);" points="291.185,356 331.333,356 298.667,446.5 256,427.5 	"/>
</g>
<linearGradient id="SVGID_8_" gradientUnits="userSpaceOnUse" x1="149.0372" y1="295.35" x2="362.9612" y2="295.35" gradientTransform="matrix(1 0 0 -1 0 514)">
	<stop  offset="0" style="stop-color:#FFE5C1"/>
	<stop  offset="1" style="stop-color:#FFC473"/>
</linearGradient>
<path style="fill:url(#SVGID_8_);" d="M346.582,195.99C342.8,140.315,295.32,108.717,256,108.717
	c-39.321,0-86.801,31.598-90.583,87.272c-10.175,1.906-17.395,11.415-16.263,21.87l1.752,16.178
	c1.189,10.975,11.141,18.982,22.115,17.793l1.89-0.205c22.467,58.481,58.722,73.537,81.088,76.958
	c22.366-3.421,58.622-18.477,81.088-76.958l1.89,0.205c10.975,1.189,20.927-6.818,22.115-17.793l1.752-16.178
	C363.978,207.404,356.757,197.895,346.582,195.99z"/>
<g>
	<polygon style="fill:#FFAA20;" points="313.975,214.849 255.606,214.849 255.606,278.594 274.863,278.594 274.863,232.715 
		313.975,232.715 	"/>
	<rect x="196.15" y="214.85" style="fill:#FFAA20;" width="45.2" height="17.867"/>
</g>
<linearGradient id="SVGID_9_" gradientUnits="userSpaceOnUse" x1="163.568" y1="352.667" x2="348.433" y2="352.667" gradientTransform="matrix(1 0 0 -1 0 514)">
	<stop  offset="0" style="stop-color:#C97824"/>
	<stop  offset="1" style="stop-color:#633100"/>
</linearGradient>
<path style="fill:url(#SVGID_9_);" d="M256,84.204c-72.588,0-92.432,66.424-92.432,86.166s0,68.092,0,68.092h13.055
	c3.656-26.635,12.533-71.486,12.533-71.486C221.012,173.242,256,172.72,256,172.72s34.988,0.522,66.844-5.745
	c0,0,8.878,44.851,12.533,71.486h13.056c0,0,0-48.35,0-68.092C348.432,150.628,328.588,84.204,256,84.204z"/>
<path style="fill:#C06100;" d="M348.437,170.369v26.068c0,20.283,0,42.024,0,42.024h-13.059
	c-3.662-26.631-12.536-71.482-12.536-71.482c-31.852,6.258-66.844,5.745-66.844,5.745s-0.131,0-0.392,0V84.209h0.392
	C328.587,84.209,348.437,150.63,348.437,170.369z"/>
<linearGradient id="SVGID_10_" gradientUnits="userSpaceOnUse" x1="160.359" y1="334.13" x2="351.642" y2="334.13" gradientTransform="matrix(1 0 0 -1 0 514)">
	<stop  offset="0" style="stop-color:#006EF5"/>
	<stop  offset="1" style="stop-color:#002D6B"/>
</linearGradient>
<path style="fill:url(#SVGID_10_);" d="M285.336,200.552h-58.671c-33.263,0-61.686-6.741-66.306-34.08c0,0,0-4.23,0-7.284l0,0
	h191.283l0,0c0,3.095,0,7.284,0,7.284C346.969,193.721,318.557,200.552,285.336,200.552z"/>
<linearGradient id="SVGID_11_" gradientUnits="userSpaceOnUse" x1="160.36" y1="357.8935" x2="351.64" y2="357.8935" gradientTransform="matrix(1 0 0 -1 0 514)">
	<stop  offset="0" style="stop-color:#57555C"/>
	<stop  offset="1" style="stop-color:#000000"/>
</linearGradient>
<rect x="160.36" y="145.74" style="fill:url(#SVGID_11_);" width="191.28" height="20.733"/>
<linearGradient id="SVGID_12_" gradientUnits="userSpaceOnUse" x1="125.0517" y1="419.5666" x2="386.9477" y2="419.5666" gradientTransform="matrix(1 0 0 -1 0 514)">
	<stop  offset="0" style="stop-color:#00A6FF"/>
	<stop  offset="1" style="stop-color:#00459F"/>
</linearGradient>
<path style="fill:url(#SVGID_12_);" d="M234.446,45.444L131.701,104.1c-8.114,4.632-8.963,15.526-1.658,21.25l30.315,23.754h191.283
	l30.315-23.754c7.306-5.724,6.456-16.618-1.658-21.25L277.554,45.444C264.284,37.869,247.716,37.869,234.446,45.444z"/>
<linearGradient id="SVGID_13_" gradientUnits="userSpaceOnUse" x1="231.487" y1="409.28" x2="280.513" y2="409.28" gradientTransform="matrix(1 0 0 -1 0 514)">
	<stop  offset="0" style="stop-color:#FFE670"/>
	<stop  offset="1" style="stop-color:#FEC000"/>
</linearGradient>
<circle style="fill:url(#SVGID_13_);" cx="256" cy="104.72" r="24.513"/>
<linearGradient id="SVGID_14_" gradientUnits="userSpaceOnUse" x1="316" y1="57.78" x2="356" y2="57.78" gradientTransform="matrix(1 0 0 -1 0 514)">
	<stop  offset="0" style="stop-color:#FFE670"/>
	<stop  offset="1" style="stop-color:#FEC000"/>
</linearGradient>
<circle style="fill:url(#SVGID_14_);" cx="336" cy="456.22" r="20"/>
<g>
</g>
<g>
</g>
<g>
</g>
<g>
</g>
<g>
</g>
<g>
</g>
<g>
</g>
<g>
</g>
<g>
</g>
<g>
</g>
<g>
</g>
<g>
</g>
<g>
</g>
<g>
</g>
<g>
</g>
</svg>
