<?xml version="1.0" encoding="iso-8859-1"?>
<!-- Generator: Adobe Illustrator 19.0.0, SVG Export Plug-In . SVG Version: 6.00 Build 0)  -->
<svg version="1.1" id="Capa_1" xmlns="http://www.w3.org/2000/svg" xmlns:xlink="http://www.w3.org/1999/xlink" x="0px" y="0px"
	 viewBox="0 0 512 512" style="enable-background:new 0 0 512 512;" xml:space="preserve">
<polygon style="fill:#6FD1AB;" points="454,272 224,272 196,312 196,352 482,352 482,312 "/>
<polygon style="fill:#5AD2E6;" points="434,192 244,192 224,272 454,272 "/>
<rect x="316" y="312" style="fill:#A0A2A8;" width="80" height="40"/>
<path style="fill:#DAE2EF;" d="M482,392H196c-11.046,0-20-8.954-20-20l0,0c0-11.046,8.954-20,20-20h286c11.046,0,20,8.954,20,20l0,0
	C502,383.046,493.046,392,482,392z"/>
<path style="fill:#656970;" d="M464,442h-20c-5.523,0-10-4.477-10-10v-40h40v40C474,437.523,469.523,442,464,442z"/>
<g>
	<path style="fill:#FFD34E;" d="M226,312h-30v40h60v-10C256,325.431,242.569,312,226,312z"/>
	<path style="fill:#FFD34E;" d="M482,312h-30c-16.569,0-16,13.431-16,30v10h46V312z"/>
</g>
<path style="fill:#DAE2EF;" d="M316,392H30c-11.046,0-20-8.954-20-20l0,0c0-11.046,8.954-20,20-20h286c11.046,0,20,8.954,20,20l0,0
	C336,383.046,327.046,392,316,392z"/>
<g>
	<path style="fill:#656970;" d="M68,442H48c-5.523,0-10-4.477-10-10v-40h40v40C78,437.523,73.523,442,68,442z"/>
	<path style="fill:#656970;" d="M298,442h-20c-5.523,0-10-4.477-10-10v-40h40v40C308,437.523,303.523,442,298,442z"/>
</g>
<polygon style="fill:#F03C32;" points="288,272 58,272 30,312 30,352 316,352 316,312 "/>
<polygon style="fill:#5AD2E6;" points="268,184 78,184 58,272 288,272 "/>
<g>
	<path style="fill:#FFD34E;" d="M60,312H30v40h60v-10C90,325.431,76.569,312,60,312z"/>
	<path style="fill:#FFD34E;" d="M316,312h-30c-16.569,0-30,13.431-30,30v10h60V312z"/>
</g>
<path d="M319,80c5.51,0,10-4.49,10-10s-4.49-10-10-10s-10,4.49-10,10S313.49,80,319,80z"/>
<path d="M492,343.72V312c0-1.867-0.662-4.098-1.808-5.735l-26.939-38.484l-16.665-66.658l36.931-43.153
	c3.59-4.19,3.1-10.509-1.09-14.099c-4.124-3.534-10.583-3.021-14.1,1.09l-31.95,37.331c-0.767-0.188-1.563-0.291-2.38-0.291h-42.402
	l22.082-61.43c1.87-5.18-0.839-10.919-6.028-12.79c-5.152-1.857-10.948,0.889-12.792,6.03L370.348,182H329v-72c0-5.51-4.49-10-10-10
	s-10,4.49-10,10v72h-31.199l-0.049-0.216C276.717,177.231,272.669,174,268,174H78c-4.669,0-8.717,3.231-9.751,7.784l-19.565,86.088
	l-26.875,38.393c-0.018,0.025-0.032,0.052-0.05,0.077C20.637,307.976,20,310.023,20,312v31.72C8.361,347.848,0,358.964,0,372
	c0,15.869,12.388,28.892,28,29.926V432c0,11.028,8.972,20,20,20h20c11.028,0,20-8.972,20-20v-30h170v30c0,11.028,8.972,20,20,20h20
	c11.028,0,20-8.972,20-20v-30h106v30c0,11.028,8.972,20,20,20h20c11.028,0,20-8.972,20-20v-30.074c15.612-1.034,28-14.057,28-29.926
	C512,358.964,503.639,347.848,492,343.72z M425.999,340.415V342H406v-30c0-5.523-4.477-10-10-10h-74.793l-14-20h141.587l14,20H452
	c-7.686,0-13.821,2.241-18.234,6.659C425.972,316.461,425.985,328.097,425.999,340.415z M386,322v20h-20v-20H386z M447.916,322.793
	C448.281,322.428,449.57,322,452,322h20v17.752V342h-26l-0.001-1.607C445.991,333.783,445.981,324.73,447.916,322.793z M309,202v30
	c0,5.51,4.49,10,10,10s10-4.49,10-10v-30h34.159l-9.569,26.62c-1.87,5.19,0.839,10.928,6.027,12.789
	c5.108,1.832,10.973-0.955,12.793-6.029L384.409,202h35.104L399.4,225.5c-3.58,4.189-3.09,10.508,1.098,14.098
	c4.071,3.49,10.643,2.962,14.102-1.098l16.034-18.735L441.192,262h-145.21l-13.636-60H309z M85.982,194h174.035l15.455,68h-23.336
	c0,0-30.394-35.838-30.506-35.97c-3.435-4.05-10.06-4.575-14.1-1.161c-4.2,3.57-4.72,9.89-1.16,14.1L225.902,262h-77.765
	c0,0-30.398-35.843-30.506-35.97c-3.503-4.13-9.988-4.636-14.1-1.16c-4.2,3.57-4.72,9.89-1.16,14.1L121.902,262H70.528L85.982,194z
	 M63.207,282h219.587l14,20H286c-22.056,0-40,17.944-40,40H100c0-22.056-17.944-40-40-40H49.206L63.207,282z M306,322v20h-40
	c0-11.028,8.972-20,20-20H306z M40,322h20c11.028,0,20,8.972,20,20H40V322z M68,432H48v-30h20.003l0.009,30
	C68.013,432,68.009,432,68,432z M298,432h-20v-30h20.003l0.009,30C298.013,432,298.009,432,298,432z M316,382H30
	c-5.514,0-10-4.486-10-10s4.486-10,10-10h286c5.514,0,10,4.486,10,10S321.514,382,316,382z M326,322h20v20h-20V322z M464,432h-20
	v-30h20.003l0.009,30C464.013,432,464.009,432,464,432z M482,382H344.284c1.11-3.129,1.716-6.495,1.716-10
	c0-3.508-0.623-6.869-1.735-10H482c5.514,0,10,4.486,10,10S487.514,382,482,382z"/>
<path d="M130,322h86c5.523,0,10-4.477,10-10s-4.477-10-10-10h-86c-5.523,0-10,4.477-10,10S124.477,322,130,322z"/>
<circle cx="418" cy="79.5" r="10"/>
<circle cx="502" cy="121.5" r="10"/>
<g>
</g>
<g>
</g>
<g>
</g>
<g>
</g>
<g>
</g>
<g>
</g>
<g>
</g>
<g>
</g>
<g>
</g>
<g>
</g>
<g>
</g>
<g>
</g>
<g>
</g>
<g>
</g>
<g>
</g>
</svg>
